# xmcd CD database file
# Copyright (C) 1993-1997  Ti Kan
#
# Track frame offsets:
#	150
#	17197
#	36332
#	49067
#	60375
#	75020
#	90627
#	108387
#	123250
#	136310
#	153172
#	166967
#	180957
#	198610
#	213337
#	226937
#	243575
#	257027
#
# Disc length: 3619 seconds
#
# Revision: 1
# Processed by: cddbd v1.4b41PL1 Copyright (c) Steve Scherf et al.
# Submitted via: xmcd 2.1 PL2
#
DISCID=e10e2112
DTITLE=Monti Amundson - The Mean Eighteen
DYEAR=1900
DGENRE=
TTITLE0=Take A Walk
TTITLE1=Cruel Is Your Name
TTITLE2=Ninety-Nine Below
TTITLE3=Shake A Leg Meg
TTITLE4=Lesson Or Two
TTITLE5=I'm Wrong
TTITLE6=Sin No More Blues
TTITLE7=Female Dictionary
TTITLE8=Purple Heart
TTITLE9=In Over My Head
TTITLE10=Big Block Rock
TTITLE11=Broke Down Car
TTITLE12=Rock Treatment
TTITLE13=Brain Grenade
TTITLE14=Red Hot Wire
TTITLE15=Not A Day Goes By
TTITLE16=Bad Day Rough Week
TTITLE17=Lightning Strikes
EXTD=
EXTT0=
EXTT1=
EXTT2=
EXTT3=
EXTT4=
EXTT5=
EXTT6=
EXTT7=
EXTT8=
EXTT9=
EXTT10=
EXTT11=
EXTT12=
EXTT13=
EXTT14=
EXTT15=
EXTT16=
EXTT17=
PLAYORDER=
